<?xml version="1.0" encoding="UTF-8"?>
<svg id="Layer_1" xmlns="http://www.w3.org/2000/svg" version="1.1" viewBox="0 0 841.9 595.3">
  <!-- Generator: Adobe Illustrator 30.3.0, SVG Export Plug-In . SVG Version: 2.1.3 Build 182)  -->
  <defs>
    <style>
      .st0 {
        fill: none;
        stroke: #000;
        stroke-miterlimit: 10;
        stroke-width: .8px;
      }
    </style>
  </defs>
  <g>
    <path d="M145.3,402.9c-22.3,0-30.9-12.5-30.9-30.2s11.7-32.3,31.5-32.3,15.8,2.5,15.8,2.5c0,0-.2,1.8-.2,7.1s.2,7.6.2,7.6c-3.7-5.3-6.8-8.4-14.5-8.4-11.4,0-16.9,9.9-16.9,23s5.3,21.9,16.5,21.9,11.2-3.3,14.9-8.6c0,0-.2,2.8-.2,8.1s.2,6.8.2,6.8c0,0-5.4,2.5-16.4,2.5Z"/>
    <path d="M196.9,403.5c-19.2,0-28.9-11.2-28.9-30.7s7.7-32.4,28.7-32.4,28.9,11.2,28.9,30.7-7.7,32.4-28.7,32.4ZM196.9,349.2c-8.7,0-12.6,7.1-12.6,22.9s3.9,22.5,12.5,22.5,12.6-7.1,12.6-22.9-3.9-22.5-12.5-22.5Z"/>
    <path d="M279.3,402.9c-7.1,0-10.2-2-14.4-9.5l-4.6-8.2c-4-7-4.7-8.8-8.1-8.8s-1.3,0-1.3,0c0,20.7.4,21.2,2.2,24.4l.8,1.5s-3.1-.2-10.1-.2-10.2.2-10.2.2l.8-1.5c1.7-3.1,2.2-3.9,2.2-29.7s-.3-25.4-2.2-28.8l-.8-1.5s3.4.2,8,.2,9.6-.2,12.5-.2c13.5,0,26.8.6,26.8,15.8s-9.5,16.6-17.5,16.9c6.5.9,9.1,3.7,12.7,10.7l4.7,9.2c2.3,4.3,3.8,6.5,6.9,7.8,0,0-1.5,1.5-8.4,1.5ZM254.2,348.7c-2.2,0-3.4.2-3.4.2v19.8s1,.2,3.7.2,3.4-.2,4.7-.6c3.6-.9,6.2-3.7,6.2-9.6,0-8.3-4.4-10-11.3-10Z"/>
    <path d="M346.4,342.5c-1.6,3-2.2,3.9-2.2,29.7v30.3s-2.4-.2-7.7-.2-10.2.2-10.2.2l-19.7-41.1c-1.5-3.1-2.3-6.4-2.4-6.6v17.5c0,25,.3,25.4,2.2,28.8l.8,1.5s-2.6-.2-8.3-.2-8.4.2-8.4.2l.8-1.5c1.5-3,2.2-3.9,2.2-29.7s-.3-25.4-2.2-28.8l-.8-1.5s3.2.2,11,.2,9.9-.2,9.9-.2l19.7,41c1.5,3.3,2.2,6.1,2.4,6.6v-17.4c0-25-.3-25.4-2.2-28.8l-.8-1.5s2.6.2,8.3.2,8.4-.2,8.4-.2l-.8,1.5Z"/>
    <path d="M396,399.1l-.2,3.3h-33.6c-4.6,0-6.6,0-6.6,0l.8-1.5c1.7-3.2,2.2-3.9,2.2-29.7s-.3-25.4-2.2-28.8l-.8-1.5s1.9,0,6.5,0h32.9s0,1.9,0,6.1.2,6.6.2,6.8c0,0-.6-.9-3-2.3-2.1-1.2-5.4-1.9-9.5-1.9h-9.1v17.5h7.1c4,0,7.4-.4,9.5-1.6,2.2-1.3,2.9-2.1,3.1-2.2,0,0-.3,2.5-.3,8.3s.3,8,.3,8.2c0,0-.7-.9-3.1-2.3-2.1-1.2-5.4-1.6-9.5-1.6h-7.1v17.7h8.3c10.7,0,12-2.5,15.2-7.1,0,0-.4,3.4-.9,12.6Z"/>
    <path d="M450.4,402.9c-7.1,0-10.2-2-14.4-9.5l-4.6-8.2c-4-7-4.7-8.8-8.1-8.8s-1.3,0-1.3,0c0,20.7.4,21.2,2.2,24.4l.8,1.5s-3.1-.2-10.1-.2-10.2.2-10.2.2l.8-1.5c1.7-3.1,2.2-3.9,2.2-29.7s-.3-25.4-2.2-28.8l-.8-1.5s3.4.2,8,.2,9.6-.2,12.5-.2c13.5,0,26.8.6,26.8,15.8s-9.5,16.6-17.5,16.9c6.5.9,9.1,3.7,12.7,10.7l4.7,9.2c2.3,4.3,3.8,6.5,6.9,7.8,0,0-1.5,1.5-8.4,1.5ZM425.4,348.7c-2.2,0-3.4.2-3.4.2v19.8s1,.2,3.7.2,3.4-.2,4.7-.6c3.6-.9,6.2-3.7,6.2-9.6,0-8.3-4.4-10-11.3-10Z"/>
    <path d="M477.3,402.9c-11.1,0-16.5-2.6-16.5-2.6,0,0,.2-2,.2-6.7s-.2-8.3-.2-8.3c3,4.4,7.1,8.6,15.5,8.6s10.4-1.3,10.4-6.8-2.8-5.9-6.9-8.1l-7.1-4c-6.7-3.7-12-8.3-12-17.2s7.7-17.4,22-17.4,15.6,2.5,15.6,2.5c0,0-.2,2.1-.2,7s.2,7.9.2,7.9c-3.4-5-7.7-8.4-14.5-8.4s-9.2,1.5-9.2,6,2.9,5.4,7.6,8l6.1,3.4c7.5,4,12.4,8.5,12.4,18,0,14.2-10.2,18.2-23.3,18.2Z"/>
    <path d="M553.9,354.2c0,0-.6-.9-3-2.4-2.1-1.2-5.3-2.2-9.4-2.2h-4.6v22.5c0,25,.3,25.4,2.2,28.8l.8,1.5s-3.1-.2-10.4-.2-10.5.2-10.5.2l.8-1.5c1.7-3.3,2.2-3.9,2.2-29.7v-21.7h-4.6c-4,0-7.3.9-9.4,2.2-2.2,1.4-2.9,2.2-3,2.4,0,0,.2-2.5.2-7s0-6.1,0-6.1h49s0,1.9,0,6.1.2,6.8.2,7Z"/>
    <path d="M586,403.5c-19.2,0-28.9-11.2-28.9-30.7s7.7-32.4,28.7-32.4,28.9,11.2,28.9,30.7-7.7,32.4-28.7,32.4ZM586,349.2c-8.7,0-12.6,7.1-12.6,22.9s3.9,22.5,12.5,22.5,12.6-7.1,12.6-22.9-3.9-22.5-12.5-22.5Z"/>
    <path d="M678.7,342.5c-1.6,3-2.2,3.9-2.2,29.7v30.3s-2.4-.2-7.7-.2-10.2.2-10.2.2l-19.7-41.1c-1.5-3.1-2.3-6.4-2.4-6.6v17.5c0,25,.3,25.4,2.2,28.8l.8,1.5s-2.6-.2-8.3-.2-8.4.2-8.4.2l.8-1.5c1.5-3,2.2-3.9,2.2-29.7s-.3-25.4-2.2-28.8l-.8-1.5s3.2.2,11,.2,9.9-.2,9.9-.2l19.7,41c1.5,3.3,2.2,6.1,2.4,6.6v-17.4c0-25-.3-25.4-2.2-28.8l-.8-1.5s2.6.2,8.3.2,8.4-.2,8.4-.2l-.8,1.5Z"/>
    <path d="M728.3,399.1l-.2,3.3h-33.6c-4.6,0-6.6,0-6.6,0l.8-1.5c1.7-3.2,2.2-3.9,2.2-29.7s-.3-25.4-2.2-28.8l-.8-1.5s1.9,0,6.5,0h32.9s0,1.9,0,6.1.2,6.6.2,6.8c0,0-.6-.9-3-2.3-2.1-1.2-5.4-1.9-9.5-1.9h-9.1v17.5h7.1c4,0,7.4-.4,9.5-1.6,2.2-1.3,2.9-2.1,3.1-2.2,0,0-.3,2.5-.3,8.3s.3,8,.3,8.2c0,0-.7-.9-3.1-2.3-2.1-1.2-5.4-1.6-9.5-1.6h-7.1v17.7h8.3c10.7,0,12-2.5,15.2-7.1,0,0-.4,3.4-.9,12.6Z"/>
  </g>
  <g>
    <path d="M321.4,433.9v30.1h-2v-24.1l-12.1,17h0l-12-16.8v23.9h-2v-30.1h0l14,19.9,14.1-19.9h0Z"/>
    <path d="M349.9,454.3h-13l-3.9,9.7h-2l12.4-30.7h.2l12.4,30.7h-2.3l-3.9-9.7ZM349.2,452.4l-5.7-14.5-5.8,14.5h11.5Z"/>
    <path d="M382.2,464l-7.7-12.5c-.6.1-1.3.2-2.2.2h-4.6v12.3h-2v-29.4h6.7c1.5,0,3,.3,4.5.9,1.4.6,2.6,1.5,3.5,2.8.9,1.2,1.3,2.8,1.3,4.6s-.4,3.4-1.2,4.9c-.8,1.4-2.1,2.5-3.9,3.2l8,13h-2.4ZM377.9,447.7c1.1-1.3,1.7-2.9,1.7-4.7s-.3-2.2-.8-3.2-1.4-1.8-2.4-2.4c-1-.6-2.3-.9-3.6-.9h-5v13.2h4.4c2.7,0,4.6-.7,5.7-2Z"/>
    <path d="M396.9,449.3v-.4c.1,0,14.7-14.3,14.7-14.3h2.6l-12.2,12.1,13.5,17.4h-2.6l-12.5-16.1-3.6,3.4v12.7s-2,0-2,0v-29.4h2.1v14.7Z"/>
    <path d="M443,434.6v1.9h-16.1v11.7h14.5v1.9h-14.5v11.9h16.7v1.9h-18.7v-29.4h18.1Z"/>
    <path d="M471.1,434.6v1.9h-8.7v27.5h-2v-27.5h-8.6v-1.9h19.3Z"/>
    <path d="M483.1,434.6v29.4h-2v-29.4h2Z"/>
    <path d="M520,434.6v30.1h0l-22.7-25.5v24.8s-1.9,0-1.9,0v-30h.1l22.7,25.7v-25.1s1.9,0,1.9,0Z"/>
    <path d="M550.4,463.6c-1.7.5-3.3.7-4.8.7-3,0-5.7-.6-8-1.9-2.3-1.3-4.1-3.1-5.3-5.3-1.3-2.2-1.9-4.7-1.9-7.5s.7-5.6,2-7.9c1.4-2.3,3.2-4.2,5.5-5.5,2.3-1.3,4.8-2,7.5-2s5.6.7,8.1,2.2l-.7,1.8c-1-.6-2.1-1-3.4-1.4-1.3-.4-2.5-.5-3.7-.5-2.5,0-4.7.6-6.7,1.7s-3.6,2.7-4.7,4.7c-1.1,2-1.7,4.2-1.7,6.7s.5,4.6,1.6,6.6c1.1,2,2.6,3.5,4.6,4.6s4.2,1.7,6.8,1.7,2.4-.1,3.7-.4c1.3-.3,2.3-.7,3.2-1.2v-8.2h-6.6v-1.9h8.7v11.3c-1,.7-2.4,1.2-4.1,1.7Z"/>
  </g>
  <line class="st0" x1="118.6" y1="451.5" x2="274" y2="451.5"/>
  <line class="st0" x1="575.5" y1="451.5" x2="730.9" y2="451.5"/>
  <path d="M457.9,158.3l15.8-27h-148.4l-1,171.3h152.5v-26.9h-124.6v-117.4s105.1,0,105.7,0Z"/>
  <polygon points="519.1 302.6 492.2 302.6 492.2 181 444.9 262.4 400 195.7 400 262.4 373 262.4 373 171.8 414.1 171.8 444.9 210.5 492.7 131.3 519.1 131.3 519.1 302.6"/>
</svg>